<?xml version="1.0" standalone="no"?>
<!DOCTYPE svg PUBLIC "-//W3C//DTD SVG 20010904//EN"
 "http://www.w3.org/TR/2001/REC-SVG-20010904/DTD/svg10.dtd">
<svg version="1.0" xmlns="http://www.w3.org/2000/svg"
 width="50.000000pt" height="50.000000pt" viewBox="0 0 50.000000 50.000000"
 preserveAspectRatio="xMidYMid meet">

<g transform="translate(0.000000,50.000000) scale(0.100000,-0.100000)"
fill="#000000" stroke="none">
<path d="M0 250 l0 -250 58 0 57 0 -5 87 c-5 81 -7 88 -27 91 -29 4 -73 57
-73 88 0 56 48 109 105 116 22 2 31 10 40 38 16 50 70 76 121 60 28 -10 40
-22 56 -56 15 -35 24 -44 43 -44 14 0 39 -13 57 -29 27 -24 33 -36 33 -71 0
-36 -6 -47 -33 -70 -32 -26 -32 -27 -32 -118 l0 -92 50 0 50 0 0 250 0 250
-250 0 -250 0 0 -250z"/>
<path d="M210 438 c-6 -7 -19 -29 -28 -48 -13 -27 -26 -37 -58 -45 -56 -14
-74 -31 -74 -71 0 -35 28 -64 62 -64 20 0 38 -36 38 -76 0 -23 3 -24 59 -24
32 0 79 3 105 6 l46 7 0 41 c0 35 5 45 35 69 22 18 35 36 35 52 0 30 -44 65
-81 65 -23 0 -30 5 -35 28 -11 48 -32 72 -64 72 -16 0 -34 -6 -40 -12z m-70
-113 c0 -13 -35 -75 -42 -75 -16 0 -21 31 -10 56 7 14 20 24 32 24 11 0 20 -2
20 -5z"/>
</g>
</svg>
